<svg version="1" xmlns="http://www.w3.org/2000/svg" width="422.667" height="422.667" viewBox="0 0 317.000000 317.000000"><path d="M81.5 37.5c-39.6 8.6-58 54.2-35.4 87.9 9.2 13.8 21.6 21.6 38.3 24.4 8.3 1.3 10.3 1.3 18.3 0 16.5-2.8 29.2-10.9 38.2-24.3 22.8-34.1 4.3-79.4-35.9-88.1-7.9-1.7-15.6-1.7-23.5.1zM214.5 37c-12.3 2.6-26.4 11.1-33.6 20.3-15.1 19-16.8 44.9-4.4 66.3 6.5 11.3 20.5 21.6 34.5 25.5 6.8 1.9 23.3 1.6 30.5-.5 29-8.6 46.5-37.9 40.1-66.9-2.1-9.2-7.1-19.5-12.6-25.9-5.5-6.4-17.6-14.3-25.8-16.9-7.4-2.3-22.2-3.3-28.7-1.9zM82.4 169c-6.9 1.5-16.3 5.7-22.9 10.5-19.8 14.1-28 39.6-20.5 63.8 2.8 8.9 11 20.9 18.5 26.9 11.7 9.5 29 14.2 44 11.9 16.5-2.4 29.9-10.7 39.2-24.3 21.4-31.6 7.4-73.8-28.8-86.5-8.1-2.8-22-3.9-29.5-2.3zM217 168.6c-15.4 3-30.5 12.5-38.7 24.5-7.6 11-11.4 27-9.5 39.8 5.5 37.2 42.4 58.9 77.6 45.7 15.5-5.9 26.7-17.4 32.8-33.9 2.7-7.2 3.1-9.5 3.1-18.7.1-8.9-.3-11.7-2.7-18.5-6.2-18-18.3-30-37.3-36.6-5.7-2-20.1-3.3-25.3-2.3z"/></svg>